<svg width="24" height="24" viewBox="0 0 24 24" fill="none" xmlns="http://www.w3.org/2000/svg">
    <path class="svg-colorized-el" fill-rule="evenodd" clip-rule="evenodd" d="M18.378 5.621a3.021 3.021 0 0 0-4.273 0l-2.954 2.954a.5.5 0 0 0 .708.707l2.954-2.954a2.021 2.021 0 1 1 2.858 2.859l-3.332 3.331c-.79.79-2.069.79-2.858 0a.5.5 0 0 0-.707.708 3.021 3.021 0 0 0 4.272 0l3.332-3.332a3.021 3.021 0 0 0 0-4.273zM5.623 18.375a3.021 3.021 0 0 0 4.273 0l2.954-2.954a.5.5 0 1 0-.707-.707l-2.954 2.954a2.021 2.021 0 0 1-2.858-2.859l3.331-3.332c.79-.789 2.07-.789 2.859 0a.5.5 0 0 0 .707-.707 3.021 3.021 0 0 0-4.273 0l-3.332 3.332a3.021 3.021 0 0 0 0 4.273z" fill="#43B6B8"/>
</svg>