<svg width="24" height="24" viewBox="0 0 24 24" fill="none" xmlns="http://www.w3.org/2000/svg">
<circle opacity="0.2" cx="12" cy="12" r="12" fill="#43B6B8"/>
<path d="M11 13.5C11 14.0523 11.4477 14.5 12 14.5C12.5523 14.5 13 14.0523 13 13.5H11ZM13 6.375C13 5.82272 12.5523 5.375 12 5.375C11.4477 5.375 11 5.82272 11 6.375H13ZM13 16.6875C13 16.1352 12.5523 15.6875 12 15.6875C11.4477 15.6875 11 16.1352 11 16.6875H13ZM11 17.625C11 18.1773 11.4477 18.625 12 18.625C12.5523 18.625 13 18.1773 13 17.625H11ZM13 13.5V6.375H11V13.5H13ZM11 16.6875V17.625H13V16.6875H11Z" fill="#43B6B8"/>
</svg>
