<svg xmlns="http://www.w3.org/2000/svg" fill="none" viewBox="0 0 24 24">
  <path fill="#536F90" fill-rule="evenodd" d="M18.386 5.628a3.011 3.011 0 00-4.275.017l-2.466 2.504a.5.5 0 00.712.702l2.466-2.505A2.011 2.011 0 1117.68 9.18l-3.339 3.338c-.79.79-2.069.79-2.858 0a.5.5 0 00-.707.708 3.021 3.021 0 004.272 0l3.339-3.34a3.011 3.011 0 000-4.258zM5.618 18.368a3.012 3.012 0 004.275-.016l2.464-2.501a.5.5 0 10-.712-.702L9.18 17.65a2.012 2.012 0 11-2.856-2.834l3.338-3.339c.79-.789 2.07-.789 2.859 0a.5.5 0 00.707-.707 3.021 3.021 0 00-4.273 0L5.618 14.11a3.012 3.012 0 000 4.259z" clip-rule="evenodd"/>
</svg>