<svg width="24" height="24" viewBox="0 0 24 24" fill="none" xmlns="http://www.w3.org/2000/svg">
    <path fill-rule="evenodd" clip-rule="evenodd" d="M5 4.5h14V6H5V4.5zM5 7c-.5523 0-1-.4477-1-1V4.5c0-.5523.4477-1 1-1h14c.5523 0 1 .4477 1 1V6c0 .5523-.4477 1-1 1v6c0 .5523-.4477 1-1 1h-5.2251a.5342.5342 0 0 1 .0005.022v1.4626a.531.531 0 0 1 .0318.0285l3.784 3.6899a.485.485 0 0 1 0 .6981c-.1977.1928-.5182.1928-.7159 0l-3.0999-3.0227v1.6436a.5.5 0 0 1-1 0v-1.7426L8.574 19.9011c-.1978.1928-.5183.1928-.716 0a.485.485 0 0 1 0-.6981l3.784-3.6899a.5062.5062 0 0 1 .1334-.0935V14.022a.4014.4014 0 0 1 .0005-.022H6c-.5523 0-1-.4477-1-1V7zm13 0H6v6h12V7z" fill="#43B6B8"/>
</svg>