<svg xmlns="http://www.w3.org/2000/svg" width="24" height="24" fill="none" viewBox="0 0 24 24">
    <path fill="#43B6B8" d="M14.643 17l.307-.395-.136-.105h-.171v.5zm3.857 3l-.307.395.807.627V20h-.5zm0-3.063l-.125-.484-.375.096v.388h.5zM4.5 8A1.5 1.5 0 016 6.5v-1A2.5 2.5 0 003.5 8h1zm0 7V8h-1v7h1zM6 16.5A1.5 1.5 0 014.5 15h-1A2.5 2.5 0 006 17.5v-1zm8.643 0H6v1h8.643v-1zm4.164 3.105l-3.857-3-.614.79 3.857 3 .614-.79zM18 16.937V20h1v-3.063h-1zM19.5 15a1.5 1.5 0 01-1.125 1.453l.25.968A2.5 2.5 0 0020.5 15h-1zm0-7v7h1V8h-1zM18 6.5A1.5 1.5 0 0119.5 8h1A2.5 2.5 0 0018 5.5v1zm-12 0h12v-1H6v1z"/>
    <path fill="#43B6B8" fill-rule="evenodd" d="M7.5 9.25a.5.5 0 000 1h9a.5.5 0 000-1h-9zm0 3.5a.5.5 0 000 1h9a.5.5 0 000-1h-9z" clip-rule="evenodd"/>
</svg>