<svg width="24" height="24" fill="none" xmlns="http://www.w3.org/2000/svg">
  <circle cx="12" cy="12" r="8.5" stroke="#43B6B8"/>
  <path fill-rule="evenodd" clip-rule="evenodd" d="M16.718 7.915a.5.5 0 00-.633-.633L10.67 9.087A2.5 2.5 0 009.09 10.67l-1.805 5.415a.5.5 0 00.632.632l5.416-1.805a2.5 2.5 0 001.58-1.58l1.806-5.416zm-5.732 2.121l4.467-1.489-1.489 4.467c-.075.224-.2.424-.362.586a.562.562 0 00-.017-.017l-3.126-3.126a.522.522 0 00-.063-.054c.163-.165.364-.292.59-.367z" fill="#43B6B8"/>
</svg>