<svg width="24" height="24" viewBox="0 0 24 24" fill="none" xmlns="http://www.w3.org/2000/svg">
    <rect x="4.5" y="8.5" width="11" height="11" rx="2.5" stroke="#43B6B8"/>
    <path fill-rule="evenodd" clip-rule="evenodd" d="M16.1431 4.8574H9.8574c-1.6568 0-3 1.3432-3 3v.6175c.138-.0302.2815-.046.4286-.046h.5714v-.5715c0-1.1046.8955-2 2-2h6.2857c1.1046 0 2 .8954 2 2v6.2857c0 1.1046-.8954 2-2 2h-.5714v.5715c0 .1471-.0159.2905-.046.4285h.6174c1.6569 0 3-1.3431 3-3V7.8574c0-1.6568-1.3431-3-3-3z" fill="#43B6B8"/>
</svg>