<svg width="14" height="15" viewBox="0 0 14 15" fill="none" xmlns="http://www.w3.org/2000/svg">
<path d="M1.34379 1.13668C1.14853 0.941419 0.831943 0.941419 0.636681 1.13668C0.441419 1.33194 0.441419 1.64853 0.636681 1.84379L6.29354 7.50064L0.636681 13.1575C0.441419 13.3528 0.441419 13.6693 0.636681 13.8646C0.831943 14.0599 1.14853 14.0599 1.34379 13.8646L7.00064 8.20775L12.6575 13.8646C12.8528 14.0599 13.1693 14.0599 13.3646 13.8646C13.5599 13.6693 13.5599 13.3528 13.3646 13.1575L7.70775 7.50064L13.3646 1.84379C13.5599 1.64853 13.5599 1.33194 13.3646 1.13668C13.1693 0.941419 12.8528 0.941419 12.6575 1.13668L7.00064 6.79354L1.34379 1.13668Z" fill="white"/>
</svg>
