<svg xmlns="http://www.w3.org/2000/svg" width="24" height="24" viewBox="0 0 24 24" fill="none">
    <path class="svg-colorized-el" fill="#75787B" fill-rule="evenodd" d="M10 3a.5.5 0 00-.5.5V5H5a.5.5 0 000 1h14a.5.5 0 000-1h-4.5V3.5A.5.5 0 0014 3h-4zm3.5 2V4h-3v1h3zm-3 3a.5.5 0 10-1 0v9a.5.5 0 001 0V8zm4 0a.5.5 0 10-1 0v9a.5.5 0 001 0V8zm-9.558-.497a.5.5 0 01.555.44l1.297 11.115a.5.5 0 00.496.442h9.42a.5.5 0 00.497-.442l1.296-11.116a.5.5 0 01.994.116L18.2 19.174a1.5 1.5 0 01-1.49 1.326H7.29a1.5 1.5 0 01-1.49-1.326L4.503 8.058a.5.5 0 01.44-.555z" clip-rule="evenodd"/>
</svg>