<svg width="24" height="24" viewBox="0 0 24 24" fill="none" xmlns="http://www.w3.org/2000/svg">
    <path fill-rule="evenodd" clip-rule="evenodd" d="M12.5 17a.5.5 0 0 1-1 0v-6.7929l-2.1464 2.1465a.5001.5001 0 0 1-.7072-.7072l3-3L12 8.293l.3536.3536 3 2.9999a.5002.5002 0 0 1 0 .7072.5002.5002 0 0 1-.7072 0L12.5 10.2071V17z" fill="#43B6B8"/>
    <path d="M16.8332 16.4933l-.1054.0067H6.527c-1.659 0-3.027-1.3861-3.027-3.125s1.368-3.125 3.027-3.125c.0277 0 .0553.0004.0828.0011.4.0111.782-.3013.782-.7511 0-2.2221 1.7493-4 3.8785-4 1.5938 0 2.9724.9935 3.5676 2.4282l.1721.4378a1 1 0 0 0 .9306.634h.681C18.5027 9 20.5 10.7838 20.5 13c0 2.1438-1.7906 3.3744-3.6668 3.4933z" fill="#fff" stroke="#43B6B8"/>
    <path fill-rule="evenodd" clip-rule="evenodd" d="M12.5 18.502a.5.5 0 0 1-1 0v-6.6164l-2.1509 2.098a.5.5 0 1 1-.6982-.7159l3-2.9262.3491-.3406.3491.3406 3 2.9262a.5.5 0 0 1-.6982.7159L12.5 11.8856v6.6164z" fill="#43B6B8"/>
</svg>