<svg xmlns="http://www.w3.org/2000/svg" fill="none" viewBox="0 0 24 24">
    <defs/>
    <mask id="icon_edit" fill="#fff">
        <path d="M18.216 9.929l-4.242-4.243-8.25 8.25a1 1 0 00-.283.566l-.471 3.3a1 1 0 001.131 1.13l3.3-.47a1 1 0 00.566-.284l8.25-8.25z"/>
    </mask>
    <path class="svg-colorized-el" fill="#43B6B8" d="M13.974 5.686l.707-.707-.707-.707-.707.707.707.707zm4.242 4.243l.708.707.707-.707-.707-.707-.707.707zM4.97 17.8l-.99-.141.99.141zm.471-3.3l.99.142-.99-.141zm.66 4.432l.142.99-.142-.99zm3.3-.472l-.141-.99.141.99zm3.866-12.068l4.242 4.243 1.415-1.414-4.243-4.243-1.414 1.414zM5.96 17.943l.471-3.3-1.98-.283-.47 3.3 1.979.283zm.471-3.3l8.25-8.25-1.414-1.414-8.25 8.25 1.414 1.414zM17.51 9.222l-8.25 8.25 1.415 1.414 8.25-8.25-1.415-1.414zm-11.266 10.7l3.3-.47-.283-1.98-3.3.47.283 1.98zm3.017-2.45l.283 1.98a2 2 0 001.131-.566L9.26 17.47zM6.43 14.642l-1.414-1.414a2 2 0 00-.566 1.131l1.98.283zm-2.45 3.017a2 2 0 002.262 2.263l-.283-1.98-1.98-.283z" mask="url(#icon_edit)"/>
    <path class="svg-colorized-el__stroke" stroke="#43B6B8" d="M13.975 6.394l1.768-1.768a.5.5 0 01.707 0l2.828 2.828a.5.5 0 010 .707L17.51 9.93l-3.535-3.535z"/>
    <rect width="10" height="1" x="8.67" y="14.525" class="svg-colorized-el" fill="#43B6B8" rx=".5" transform="rotate(-45 8.67 14.525)"/>
</svg>