<svg width="24" height="24" viewBox="0 0 24 24" fill="none" xmlns="http://www.w3.org/2000/svg">
    <path fill-rule="evenodd" clip-rule="evenodd" d="M6 7h12c.0709 0 .14.0074.2067.0214l-5.8813 5.0412a.5002.5002 0 0 1-.6508 0L5.7933 7.0214A1.0036 1.0036 0 0 1 6 7zm-.9537.6982A.9995.9995 0 0 0 5 8v8c0 .5523.4477 1 1 1h12c.5523 0 1-.4477 1-1V8a.9995.9995 0 0 0-.0463-.3018l-5.9775 5.1236a1.5 1.5 0 0 1-1.9524 0L5.0463 7.6983zM4 8c0-1.1046.8954-2 2-2h12c1.1046 0 2 .8954 2 2v8c0 1.1046-.8954 2-2 2H6c-1.1046 0-2-.8954-2-2V8z" fill="#43B6B8"/>
</svg>