<svg xmlns="http://www.w3.org/2000/svg" width="24" height="24" viewBox="0 0 24 24" fill="none">
    <path class="svg-colorized-el" fill="#75787B" fill-rule="evenodd" d="M8.154 8.493c0 .817-.676 1.493-1.493 1.493a1.503 1.503 0 01-1.493-1.493C5.168 7.676 5.844 7 6.66 7c.817 0 1.493.676 1.493 1.493zm-1.493 2.493a2.503 2.503 0 002.493-2.493A2.503 2.503 0 006.661 6a2.503 2.503 0 00-2.493 2.493 2.503 2.503 0 002.493 2.493zm.011 2.198c1 0 1.92-.295 2.692-.816.428.33.708.855.708 1.454v4.665c-.56.212-1.659.513-3.4.513-1.745 0-2.856-.303-3.422-.516v-4.662c0-.591.288-1.12.73-1.456a4.825 4.825 0 002.692.818zm2.81-.898l-.001.001.002-.001zm-5.617 0l.002.002-.002-.001zm5.822-.904c-.25-.147-.556-.075-.792.094a3.775 3.775 0 01-2.223.708c-.819 0-1.59-.258-2.222-.709-.236-.168-.543-.24-.793-.093a2.834 2.834 0 00-1.407 2.44v4.881c0 .259.131.498.368.603.587.259 1.894.694 4.054.694s3.456-.435 4.037-.694c.234-.105.363-.342.363-.599v-4.885a2.825 2.825 0 00-1.385-2.44zM14.182 9.182a.5.5 0 000 .707l2.475 2.475-2.475 2.475a.5.5 0 10.707.707l2.475-2.475 2.475 2.475a.5.5 0 10.707-.707l-2.475-2.475 2.475-2.475a.5.5 0 10-.707-.707l-2.475 2.475-2.475-2.475a.5.5 0 00-.707 0z" clip-rule="evenodd"/>
</svg>