<svg width="24" height="24" viewBox="0 0 24 24" fill="none" xmlns="http://www.w3.org/2000/svg"><path stroke="#43B6B8" stroke-linecap="round" stroke-linejoin="round" d="M3.06 19.55L21.04 4.4"/><circle cx="12" cy="12" r="2.5" stroke="#43B6B8"/><path fill-rule="evenodd" clip-rule="evenodd" d="M14.9 7.43A9.87 9.87 0 0012 7c-4.08 0-6.86 2.45-8.16 3.92-.55.62-.51 1.52.06 2.11.5.52 1.18 1.17 2.03 1.79l.8-.66a14.54 14.54 0 01-2.11-1.82c-.22-.23-.22-.54-.03-.76C5.81 10.2 8.34 8 12 8c.7 0 1.35.08 1.96.22l.95-.79zm-6.32 7.8c1.03.46 2.18.77 3.42.77 3.32 0 6.02-2.24 7.38-3.66.22-.23.22-.54.03-.76-.7-.78-1.8-1.81-3.28-2.57l.84-.69c1.44.81 2.51 1.84 3.19 2.6.54.62.51 1.52-.06 2.11C18.7 14.5 15.74 17 12 17a9.46 9.46 0 01-4.27-1.07l.85-.7z" fill="#43B6B8"/></svg>