<svg width="16" height="16" viewBox="0 0 16 16" fill="none" xmlns="http://www.w3.org/2000/svg">
<circle cx="8" cy="8" r="7.5" stroke="#33C688"/>
<path d="M4.75 11.25C4.75 11.5261 4.97386 11.75 5.25 11.75C5.52614 11.75 5.75 11.5261 5.75 11.25H4.75ZM5.25 5.25L5.38156 4.76762C5.23121 4.72661 5.07035 4.75806 4.9465 4.85265C4.82266 4.94724 4.75 5.09416 4.75 5.25H5.25ZM11 5.25H11.5C11.5 5.09603 11.4291 4.95065 11.3077 4.8559C11.1863 4.76114 11.0281 4.72759 10.8787 4.76493L11 5.25ZM11 8.25L11.1213 8.73507C11.3439 8.67943 11.5 8.47943 11.5 8.25H11ZM10.5 5.25V6.5H11.5V5.25H10.5ZM10.5 6.5V8.25H11.5V6.5H10.5ZM5.75 11.25V8.25H4.75V11.25H5.75ZM5.75 8.25V5.25H4.75V8.25H5.75ZM5.11844 5.73238L5.3472 5.79477L5.61032 4.83001L5.38156 4.76762L5.11844 5.73238ZM10.6566 5.85125L11.1213 5.73507L10.8787 4.76493L10.414 4.88111L10.6566 5.85125ZM10.8787 7.76493L10.414 7.88111L10.6566 8.85125L11.1213 8.73507L10.8787 7.76493ZM5.61032 7.83001L5.38156 7.76762L5.11844 8.73238L5.3472 8.79477L5.61032 7.83001ZM10.414 7.88111C8.83486 8.2759 7.18074 8.2583 5.61032 7.83001L5.3472 8.79477C7.08292 9.26815 8.91116 9.2876 10.6566 8.85125L10.414 7.88111ZM5.3472 5.79477C7.08292 6.26815 8.91116 6.2876 10.6566 5.85125L10.414 4.88111C8.83486 5.2759 7.18074 5.2583 5.61032 4.83001L5.3472 5.79477Z" fill="#33C688"/>
</svg>
