<svg width="16" height="16" viewBox="0 0 16 16" fill="none" xmlns="http://www.w3.org/2000/svg">
  <path fill-rule="evenodd" clip-rule="evenodd" d="M9.081 2c.444 0 .831.344.85.804l.13 1.068c.2.095.393.204.577.325l1.037-.434c.394-.2.89-.07 1.123.322l1.082 1.817c.239.402.1.904-.284 1.14l-.893.645a4.343 4.343 0 010 .624l.894.644a.835.835 0 01.283 1.14l-1.082 1.818a.857.857 0 01-1.123.322L10.64 11.8c-.184.121-.377.23-.579.325l-.128 1.068a.847.847 0 01-.85.804H6.916a.847.847 0 01-.85-.804l-.129-1.068a4.741 4.741 0 01-.578-.325l-1.037.434c-.394.2-.89.069-1.123-.321l-1.082-1.82a.834.834 0 01.284-1.138l.893-.645a4.311 4.311 0 010-.624l-.893-.644a.835.835 0 01-.284-1.14L3.2 4.085a.857.857 0 011.123-.321l1.037.433c.184-.12.377-.23.578-.325l.128-1.068A.847.847 0 016.916 2h2.165zm.02 2.276L8.949 3H7.05l-.153 1.276-.036.295-.276.11a3.738 3.738 0 00-.863.484l-.23.172-.263-.11-1.237-.518-.936 1.573 1.06.764.244.177-.042.298a3.432 3.432 0 000 .958l.04.298-.243.176-1.059.764.936 1.572 1.237-.517.264-.11.229.171c.262.197.552.361.863.485l.276.11.036.295.153 1.275h1.898l.154-1.276.035-.295.277-.11c.31-.123.6-.287.863-.484l.229-.172.264.11 1.236.518.936-1.573-1.059-.764-.243-.176.04-.298a3.502 3.502 0 000-.959l-.04-.298.243-.176 1.059-.764-.936-1.572-1.237.517-.264.11-.229-.171a3.739 3.739 0 00-.863-.484l-.276-.11-.035-.295z" fill="#75787B"/>
  <circle cx="8" cy="8" r="1.5" stroke="#75787B"/>
</svg>