<svg width="24" height="24" viewBox="0 0 24 24" fill="none" xmlns="http://www.w3.org/2000/svg">
    <path
            fill-rule="evenodd"
            clip-rule="evenodd"
            d="M14 7c0 1.0953-.9047 2-2 2s-2-.9047-2-2 .9047-2 2-2 2 .9047 2 2zm-2 3c1.6475 0 3-1.3525 3-3s-1.3525-3-3-3-3 1.3525-3 3 1.3525 3 3 3zm7.75-1.5c0 .6834-.5666 1.25-1.25 1.25s-1.25-.5666-1.25-1.25.5666-1.25 1.25-1.25 1.25.5666 1.25 1.25zm-1.25 2.25c1.2357 0 2.25-1.0143 2.25-2.25s-1.0143-2.25-2.25-2.25-2.25 1.0143-2.25 2.25 1.0143 2.25 2.25 2.25zm-13-1c.6834 0 1.25-.5666 1.25-1.25S6.1834 7.25 5.5 7.25s-1.25.5666-1.25 1.25.5666 1.25 1.25 1.25zM7.75 8.5c0 1.2357-1.0143 2.25-2.25 2.25S3.25 9.7357 3.25 8.5 4.2643 6.25 5.5 6.25 7.75 7.2643 7.75 8.5zm4.263 3.6406c1.1435 0 2.1877-.3489 3.0535-.9553.5604.3935.9335 1.0536.9335 1.812v5.3788a6.3708 6.3708 0 0 1-.4805.1683c-.7128.2198-1.8601.4556-3.5065.4556-1.6464 0-2.801-.2358-3.5216-.4563A6.5268 6.5268 0 0 1 8 18.373v-5.3757c0-.751.3847-1.4168.959-1.8138a5.3352 5.3352 0 0 0 3.054.9571zm0-1c1.1428 0 2.1558-.4244 2.9351-1.1406.6236.2354 1.1552.6658 1.521 1.2197.5777.3672 1.2872.5787 2.0411.5787.9143 0 1.7247-.2971 2.3481-.7984.9558.3156 1.6415 1.1326 1.6415 2.0981V18s-.5 1-4 1c-.578 0-1.0742-.0273-1.4998-.0728V19s-1.5 1-4.987 1S7 19 7 19v-.0722C6.5769 18.973 6.084 19 5.5104 19 2.0208 19 1.5 18 1.5 18v-4.9019c0-.9655.7065-1.7825 1.6623-2.0981.6234.5013 1.4546.7984 2.348.7984.7639 0 1.4552-.2073 2.0255-.5679.3728-.5591.9145-.9936 1.5421-1.2305a4.3319 4.3319 0 0 0 2.9351 1.1406zm-4.9834 1.4221c-.4752.1539-.986.2357-1.5192.2357-.8815 0-1.7271-.232-2.4425-.6522-.373.2486-.5679.6142-.5679.9519v4.4395c.0295.015.0628.031.1004.0476.3983.1758 1.2513.4148 2.91.4148.594 0 1.0852-.0307 1.4896-.0785v-4.9242c0-.1475.0101-.2926.0296-.4346zM17 12.9973c0-.1508-.0102-.2991-.0301-.4441a4.9263 4.9263 0 0 0 1.5403.2452c.8985 0 1.733-.2322 2.4416-.6504.3596.2447.548.605.548.9501v4.4436a1.9098 1.9098 0 0 1-.0936.0445c-.3927.1745-1.2416.4138-2.9064.4138-.6004 0-1.0947-.0311-1.4998-.0791v-4.9236z"
            fill="#43B6B8"
    />
</svg>