<svg xmlns="http://www.w3.org/2000/svg" width="14" height="14" fill="none" viewBox="0 0 14 14">
    <circle class="svg-colorized-el" cx="7" cy="7" r="7" fill="#90AAC8"/>
    <path fill="#fff" d="M7.96 6.648l-.352-.662.353.662zM4.25 4.943a.75.75 0 001.5 0h-1.5zM6.25 8a.75.75 0 001.5 0h-1.5zm2-3.057c0 .44-.25.834-.642 1.043l.706 1.324A2.685 2.685 0 009.75 4.943h-1.5zm-2.5 0c0-.639.54-1.193 1.25-1.193v-1.5c-1.498 0-2.75 1.186-2.75 2.693h1.5zM7 3.75c.71 0 1.25.554 1.25 1.193h1.5C9.75 3.436 8.498 2.25 7 2.25v1.5zm-.75 4.137V8h1.5v-.113h-1.5zm1.358-1.9c-.532.283-1.358.9-1.358 1.9h1.5c0-.049.018-.126.116-.24.101-.117.258-.236.448-.337l-.706-1.324z"/>
    <path stroke="#fff" stroke-linecap="round" stroke-width="1.5" d="M7 10.5v.5"/>
</svg>