<svg width="12" height="37" viewBox="0 0 12 37" fill="none" xmlns="http://www.w3.org/2000/svg">
<path fill-rule="evenodd" clip-rule="evenodd" d="M9.79948 33L6.64682 36.1461C6.45135 36.3411 6.45102 36.6577 6.64608 36.8532C6.84113 37.0486 7.15772 37.049 7.35318 36.8539L11.3532 32.8623C11.4471 32.7686 11.4999 32.6415 11.5 32.5089C11.5001 32.3763 11.4476 32.249 11.3539 32.1552L7.35392 28.1468C7.15886 27.9514 6.84228 27.951 6.64682 28.1461C6.45135 28.3411 6.45102 28.6577 6.64608 28.8532L9.78633 32H5C3.067 32 1.5 30.433 1.5 28.5V4.5C1.5 2.56701 3.067 1 5 1H10C10.2761 1 10.5 0.776144 10.5 0.5C10.5 0.223858 10.2761 0 10 0H5C2.51472 0 0.5 2.01472 0.5 4.5V28.5C0.5 30.9853 2.51472 33 5 33H9.79948Z" fill="white"/>
</svg>
