<svg xmlns="http://www.w3.org/2000/svg" width="24" height="24" viewBox="0 0 24 24" fill="none">
    <rect class="svg-colorized-el__stroke" width="15" height="10" x="4.5" y="2.5" stroke="#43B6B8" rx="1.5"/>
    <path class="svg-colorized-el" fill="#43B6B8" d="M7.742 21.066c.262 0 .41-.128.504-.433l.371-1.07h2.106l.37 1.078c.09.3.243.425.516.425.293 0 .504-.191.504-.464 0-.09-.02-.18-.066-.309l-1.64-4.453c-.141-.38-.368-.543-.739-.543-.367 0-.594.172-.73.547L7.3 20.293a.896.896 0 00-.067.309c0 .285.2.464.508.464zm1.113-2.3l.793-2.407h.028l.8 2.407h-1.62zm5.549 2.3c.535 0 1.055-.277 1.293-.726h.02v.289c.015.289.199.45.464.45.274 0 .473-.177.473-.49v-2.44c0-.833-.668-1.376-1.695-1.376-.793 0-1.434.305-1.645.786a.606.606 0 00-.066.265c0 .235.171.39.41.39a.468.468 0 00.394-.194c.242-.356.489-.485.867-.485.481 0 .774.25.774.684v.297l-1.098.062c-1.008.063-1.574.504-1.574 1.238 0 .747.582 1.25 1.383 1.25zm.297-.734c-.422 0-.707-.215-.707-.555 0-.328.27-.539.738-.57l.961-.059v.317c0 .5-.445.867-.992.867z"/>
</svg>