<svg width="24" height="24" viewBox="0 0 24 24" fill="none" xmlns="http://www.w3.org/2000/svg">
    <path
            d="M3 3.5568c0-.3942.3937-.6757.7875-.5068L12 5.753l8.2125-2.703c.3937-.169.7875.1126.7875.5068v14.0785c0 .2252-.1125.4505-.3375.5068l-8.4375 2.8157c-.1688.0563-.2813.0563-.45 0l-8.4375-2.8157C3.1125 18.0858 3 17.8605 3 17.6353V3.5568zm1.125.8447v12.8396l7.3125 2.3651V6.7667L4.125 4.4015zm8.4375 2.3652v12.8395l7.3125-2.3651V4.4015l-7.3125 2.3652z"
            fill="#43B6B8"
    />
</svg>