<svg width="24" height="24" viewBox="0 0 24 24" fill="none" xmlns="http://www.w3.org/2000/svg">
    <circle cx="12" cy="12" r="9.5" stroke="#D0D0CE"/>
    <path fill-rule="evenodd" clip-rule="evenodd" d="M16.913 7.329a.5.5 0 0 0-.6439-.644l-5.8318 2.1924a2.5 2.5 0 0 0-1.4604 1.4604l-2.1923 5.8317a.5.5 0 0 0 .644.644l5.8317-2.1923a2.5003 2.5003 0 0 0 1.4604-1.4604L16.913 7.329zm-6.1238 2.4844l4.7999-1.8044-1.8045 4.7999a1.499 1.499 0 0 1-.3472.5367.516.516 0 0 0-.052-.0607l-3.0722-3.0722a.516.516 0 0 0-.0607-.052 1.4995 1.4995 0 0 1 .5367-.3473z" fill="#D0D0CE"/>
</svg>