<svg xmlns="http://www.w3.org/2000/svg" width="32" height="32" fill="none" viewBox="0 0 32 32">
    <path class="svg-colorized-el" fill="#fff" fill-rule="evenodd" d="M10.542 10.556c-.018 3.047 2.477 5.57 5.52 5.58 3.073.01 5.585-2.455 5.601-5.496.016-3.113-2.456-5.632-5.534-5.64-3.073-.008-5.57 2.474-5.587 5.556zm5.565-2.712a2.712 2.712 0 012.72 2.719 2.706 2.706 0 01-2.706 2.73 2.712 2.712 0 01-2.741-2.697 2.716 2.716 0 012.727-2.752zm-5.645 11.024c1.317 1.03 2.855 1.45 4.56 1.628l-.122.133c-.058.063-.107.116-.158.168l-.73.73c-1.007 1.011-2.015 2.022-3.025 3.03-.259.26-.445.548-.463.925-.027.559.32 1.114.864 1.378.512.249 1.037.17 1.479-.265.983-.97 1.96-1.944 2.922-2.934.24-.248.371-.302.644-.017.63.66 1.276 1.302 1.923 1.945.315.313.63.627.944.942.25.251.53.43.89.455.569.04 1.148-.325 1.407-.878.237-.506.147-1.045-.283-1.48-.802-.812-1.609-1.62-2.416-2.427l-1.386-1.39c-.065-.066-.119-.125-.2-.214l-.095-.103c.933-.112 1.876-.28 2.736-.613.91-.353 1.73-.859 2.41-1.558.445-.456.45-1.03.089-1.617-.316-.514-.864-.73-1.451-.579-.303.078-.564.23-.808.418-2.462 1.656-5.833 1.61-8.287-.076a2.666 2.666 0 00-.377-.223c-.681-.321-1.336-.172-1.726.387-.456.653-.398 1.287.178 1.84.12.115.251.217.383.319l.098.076z" clip-rule="evenodd"/>
</svg>