<svg xmlns="http://www.w3.org/2000/svg" width="24" height="24" viewBox="0 0 24 24" fill="none">
    <path class="svg-colorized-el" fill="#D0D0CE" fill-rule="evenodd" d="M14.25 6.25A2.263 2.263 0 0112 8.5a2.263 2.263 0 01-2.25-2.25A2.263 2.263 0 0112 4a2.263 2.263 0 012.25 2.25zM12 9.5a3.263 3.263 0 003.25-3.25A3.263 3.263 0 0012 3a3.263 3.263 0 00-3.25 3.25A3.263 3.263 0 0012 9.5zm.015 2.562a5.922 5.922 0 003.51-1.13 2.683 2.683 0 011.225 2.265v6.286c-.692.29-2.213.767-4.735.767-2.527 0-4.064-.48-4.765-.77v-6.283c0-.951.505-1.79 1.254-2.266a5.985 5.985 0 003.511 1.131zm3.93-2.046c-.325-.192-.725-.098-1.032.123a4.922 4.922 0 01-2.898.923 4.986 4.986 0 01-2.897-.924c-.308-.22-.708-.314-1.034-.123a3.694 3.694 0 00-1.834 3.182v6.363c0 .337.171.649.48.785.764.338 2.468.905 5.285.905 2.816 0 4.505-.567 5.261-.905.306-.136.474-.446.474-.78v-6.368a3.682 3.682 0 00-1.805-3.181z" clip-rule="evenodd"/>
</svg>