<svg xmlns="http://www.w3.org/2000/svg" width="24" height="24" fill="none" viewBox="0 0 24 24">
    <path fill="#43B6B8" fill-rule="evenodd" d="M11.777 3.553a.5.5 0 01.447 0l8 4a.5.5 0 010 .894l-8 4a.5.5 0 01-.447 0l-8-4a.5.5 0 010-.894l8-4zM5.118 8L12 11.441 18.882 8 12 4.559 5.118 8zm-1.565 7.776a.5.5 0 01.67-.223L12 19.44l7.776-3.888a.5.5 0 11.448.894l-8 4a.5.5 0 01-.447 0l-8-4a.5.5 0 01-.224-.67zm.67-4.223a.5.5 0 10-.446.894l8 4a.5.5 0 00.447 0l8-4a.5.5 0 10-.448-.894L12 15.44l-7.776-3.888z" clip-rule="evenodd"/>
</svg>