<svg width="24" height="24" viewBox="0 0 24 24" fill="none" xmlns="http://www.w3.org/2000/svg">
    <circle cx="12" cy="12" r="9.5" stroke="#43B6B8"/>
    <path d="M12.9877 13.1008l-.1359-.4811.1359.4811zM8 9.8684a.5.5 0 1 0 1 0H8zM11.5 14.5a.5.5 0 0 0 1 0h-1zM15 9.8684c0 1.2894-.8947 2.3971-2.1482 2.7513l.2719.9623C14.7742 13.1156 16 11.6395 16 9.8684h-1zm-6 0C9 8.3021 10.3249 7 12 7V6C9.809 6 8 7.714 8 9.8684h1zM12 7c1.6751 0 3 1.3021 3 2.8684h1C16 7.7141 14.1909 6 12 6v1zm-.5 7.2368V14.5h1v-.2632h-1zm1.3518-1.6171c-.6648.1878-1.3518.766-1.3518 1.6171h1c0-.2534.2255-.5423.6237-.6548l-.2719-.9623z" fill="#43B6B8"/>
    <path stroke="#43B6B8" stroke-linecap="round" d="M12 16.5v1"/>
</svg>