<svg width="24" height="24" viewBox="0 0 24 24" fill="none" xmlns="http://www.w3.org/2000/svg">
<path d="M18.4963 8.24964C18.3581 8.01061 18.0522 7.92893 17.8132 8.0672C17.5741 8.20547 17.4925 8.51133 17.6307 8.75036L18.4963 8.24964ZM14.9786 5.35355C15.1738 5.15829 15.1738 4.84171 14.9786 4.64645L11.7966 1.46447C11.6013 1.2692 11.2847 1.2692 11.0895 1.46447C10.8942 1.65973 10.8942 1.97631 11.0895 2.17157L13.9179 5L11.0895 7.82843C10.8942 8.02369 10.8942 8.34027 11.0895 8.53553C11.2847 8.7308 11.6013 8.7308 11.7966 8.53553L14.9786 5.35355ZM18.5 12C18.5 15.5899 15.5899 18.5 12 18.5V19.5C16.1421 19.5 19.5 16.1421 19.5 12H18.5ZM12 18.5C8.41015 18.5 5.5 15.5899 5.5 12H4.5C4.5 16.1421 7.85786 19.5 12 19.5V18.5ZM5.5 12C5.5 8.41015 8.41015 5.5 12 5.5V4.5C7.85786 4.5 4.5 7.85786 4.5 12H5.5ZM17.6307 8.75036C18.1835 9.70592 18.5 10.8152 18.5 12H19.5C19.5 10.6348 19.1348 9.3533 18.4963 8.24964L17.6307 8.75036ZM12 5.5H14.625V4.5H12V5.5Z" fill="white"/>
</svg>
