<svg xmlns="http://www.w3.org/2000/svg" width="24" height="24" viewBox="0 0 24 24" fill="none">
    <rect width="13" height="13" x="3.5" y="3.5" stroke="#75787B" rx="3.5"/>
    <mask id="path-2-inside-1" fill="#fff">
        <path fill-rule="evenodd" d="M6 16v.5A3.5 3.5 0 009.5 20H16a4 4 0 004-4V9.5A3.5 3.5 0 0016.5 6H16v7a3 3 0 01-3 3H6z" clip-rule="evenodd"/>
    </mask>
    <path fill="#75787B" d="M6 16v-1H5v1h1zM16 6V5h-1v1h1zM7 16.5V16H5v.5h2zM9.5 19A2.5 2.5 0 017 16.5H5A4.5 4.5 0 009.5 21v-2zm6.5 0H9.5v2H16v-2zm3-3a3 3 0 01-3 3v2a5 5 0 005-5h-2zm0-6.5V16h2V9.5h-2zM16.5 7A2.5 2.5 0 0119 9.5h2A4.5 4.5 0 0016.5 5v2zM16 7h.5V5H16v2zm-1-1v7h2V6h-2zm0 7a2 2 0 01-2 2v2a4 4 0 004-4h-2zm-2 2H6v2h7v-2z" mask="url(#path-2-inside-1)"/>
    <path fill="#75787B" d="M7.354 9.646a.5.5 0 10-.708.708l.708-.708zM9 12l-.354.354a.5.5 0 00.708 0L9 12zm4.354-3.646a.5.5 0 00-.708-.708l.708.708zm-6.708 2l2 2 .708-.708-2-2-.708.708zm2.708 2l4-4-.708-.708-4 4 .708.708z"/>
</svg>