<svg width="16" height="16" viewBox="0 0 16 16" fill="none" xmlns="http://www.w3.org/2000/svg"><rect x=".5" y=".5" width="15" height="15" rx="3.5" stroke="#33C688" class="svg-colorized-el__stroke"/><path class="svg-colorized-el" d="M5.9 5.86a.5.5 0 10-.7-.72l.7.72zm4.9-.72a.5.5 0 10-.7.72l.7-.72zM11 8a3 3 0 01-3 3v1a4 4 0 004-4h-1zm-3 3a3 3 0 01-3-3H4a4 4 0 004 4v-1zM5 8c0-.84.34-1.6.9-2.14l-.7-.72A3.99 3.99 0 004 8h1zm5.1-2.14c.56.54.9 1.3.9 2.14h1c0-1.12-.46-2.13-1.2-2.86l-.7.72z" fill="#33C688"/><path d="M8 8V4.5" stroke="#33C688" stroke-linecap="round" stroke-linejoin="round" class="svg-colorized-el__stroke"/></svg>