<svg width="16" height="16" viewBox="0 0 16 16" fill="none" xmlns="http://www.w3.org/2000/svg"><rect x=".5" y=".5" width="15" height="15" rx="3.5" stroke="#33C688" class="svg-colorized-el__stroke"/><path class="svg-colorized-el" d="M4.75 11.25a.5.5 0 001 0h-1zm.5-6l.13-.48a.5.5 0 00-.63.48h.5zm5.75 0h.5a.5.5 0 00-.62-.49l.12.49zm0 3l.12.49a.5.5 0 00.38-.49H11zm-.5-3V6.5h1V5.25h-1zm0 1.25v1.75h1V6.5h-1zm-4.75 4.75v-3h-1v3h1zm0-3v-3h-1v3h1zm-.63-2.52l.23.06.26-.96-.23-.06-.26.96zm5.54.12l.46-.11-.24-.98-.47.12.25.97zm.22 1.91l-.47.12.25.97.46-.11-.24-.98zm-5.27.07l-.23-.06-.26.96.23.06.26-.96zm4.8.05a9.5 9.5 0 01-4.8-.05l-.26.96c1.73.48 3.56.5 5.3.06l-.24-.97zM5.35 5.8c1.73.48 3.56.5 5.3.06l-.24-.97a9.5 9.5 0 01-4.8-.05l-.26.96z" fill="#33C688"/></svg>