<svg width="16" height="16" viewBox="0 0 16 16" fill="none" xmlns="http://www.w3.org/2000/svg">
    <rect x="0.5" y="0.5" width="15" height="15" rx="3.5" stroke="#FFC20E" class="svg-colorized-el__stroke"/>
    <path fill-rule="evenodd" clip-rule="evenodd" d="M5.35358 4.646C5.15832 4.45074 4.84174 4.45074 4.64648 4.646C4.45122 4.84127 4.45122 5.15785 4.64648 5.35311L7.29341 8.00005L4.64652 10.6469C4.45126 10.8422 4.45126 11.1588 4.64652 11.354C4.84178 11.5493 5.15837 11.5493 5.35363 11.354L8.00052 8.70715L10.6465 11.3531C10.8417 11.5484 11.1583 11.5484 11.3536 11.3531C11.5488 11.1578 11.5488 10.8413 11.3536 10.646L8.70763 8.00005L11.3536 5.35404C11.5489 5.15878 11.5489 4.8422 11.3536 4.64694C11.1584 4.45167 10.8418 4.45167 10.6465 4.64694L8.00052 7.29294L5.35358 4.646Z" fill="#FFC20E" class="svg-colorized-el"/>
</svg>
