<svg xmlns="http://www.w3.org/2000/svg" width="24" height="24" fill="none" viewBox="0 0 24 24">
    <path stroke="#AEAEAE" d="M5.923 12.797l-1.667 1.204a.487.487 0 00-.188.676l1.575 2.645a.52.52 0 00.698.181l1.909-.798c.433.325.91.595 1.424.8l.24 2c0 .273.23.495.512.495h3.149c.282 0 .51-.222.51-.495l.242-2.001a6.166 6.166 0 001.424-.8l1.908.8a.52.52 0 00.698-.182l1.575-2.645a.488.488 0 00-.188-.677l-1.667-1.204c.036-.26.056-.526.056-.796s-.02-.537-.056-.797l1.667-1.204a.487.487 0 00.187-.677l-1.574-2.644a.52.52 0 00-.698-.182l-1.91.799a6.168 6.168 0 00-1.423-.799l-.24-2A.503.503 0 0013.573 4h-3.149a.503.503 0 00-.51.495l-.241 2.002a6.166 6.166 0 00-1.424.798l-1.909-.798a.52.52 0 00-.698.181L4.068 9.323a.487.487 0 00.188.677l1.667 1.204a5.718 5.718 0 000 1.593z"/>
    <circle cx="18" cy="15.5" r="3" fill="#AEAEAE" stroke="#fff"/>
    <circle cx="12" cy="12" r="2" fill="#fff" stroke="#AEAEAE"/>
</svg>