<svg xmlns="http://www.w3.org/2000/svg" width="24" height="24" viewBox="0 0 24 24" fill="none">
    <path fill="#43B6B8" d="M8.65 11.07c.303 0 .492-.193.492-.51V5.511h1.551c.273 0 .457-.167.457-.426 0-.26-.184-.426-.457-.426h-4.09c-.273 0-.458.167-.458.426 0 .26.185.426.457.426h1.556v5.05c0 .316.184.51.492.51zm4.476-.07h3.147c.272 0 .457-.167.457-.426 0-.26-.185-.426-.457-.426h-2.654v-1.97h2.509c.264 0 .44-.162.44-.408 0-.25-.18-.409-.44-.409h-2.51v-1.85h2.655c.272 0 .457-.167.457-.426 0-.26-.185-.426-.457-.426h-3.146c-.308 0-.493.193-.493.51v5.321c0 .317.185.51.492.51zm-4.38 9.105c1.481 0 2.422-.751 2.422-1.946 0-.923-.545-1.455-1.877-1.736l-.69-.145c-.821-.176-1.15-.484-1.15-.945 0-.58.549-.94 1.291-.94.633 0 1.116.25 1.332.834.1.23.246.339.483.339.255 0 .435-.167.435-.422a.675.675 0 00-.035-.229c-.246-.848-1.107-1.362-2.202-1.362-1.349 0-2.302.747-2.302 1.833 0 .914.575 1.503 1.841 1.77l.694.146c.848.184 1.182.492 1.182.984 0 .567-.575.98-1.38.98-.733 0-1.309-.277-1.507-.87-.096-.237-.242-.338-.466-.338-.268 0-.443.184-.443.47 0 .105.022.21.052.307.246.739 1.09 1.27 2.32 1.27zm6.12-.035c.304 0 .493-.193.493-.51v-5.049h1.551c.273 0 .457-.167.457-.426 0-.26-.184-.426-.457-.426H12.82c-.273 0-.457.167-.457.426 0 .26.184.426.457.426h1.555v5.05c0 .316.185.51.493.51z"/>
</svg>