<svg xmlns="http://www.w3.org/2000/svg" width="32" height="32" fill="none" viewBox="0 0 32 32">
    <path class="svg-colorized-el" fill="#fff" d="M11.547 25c9.057 0 14.01-6.926 14.01-12.932 0-.196 0-.392-.014-.587A9.63 9.63 0 0028 9.128c-.899.368-1.852.609-2.828.715 1.028-.568 1.797-1.461 2.165-2.514a10.38 10.38 0 01-3.127 1.104 5.068 5.068 0 00-2.794-1.373 5.288 5.288 0 00-3.122.478 4.72 4.72 0 00-2.163 2.133 4.229 4.229 0 00-.312 2.907 14.905 14.905 0 01-5.622-1.378A13.833 13.833 0 015.67 7.83c-.63 1-.822 2.184-.539 3.311.283 1.128 1.021 2.113 2.064 2.755a5.2 5.2 0 01-2.235-.569v.058c0 1.05.394 2.066 1.114 2.878A5.012 5.012 0 008.91 17.84a5.314 5.314 0 01-2.223.078 4.58 4.58 0 001.752 2.259c.825.566 1.82.88 2.848.898-1.743 1.264-3.897 1.951-6.115 1.949-.392 0-.783-.023-1.172-.066 2.252 1.334 4.872 2.042 7.547 2.039"/>
</svg>