<svg xmlns="http://www.w3.org/2000/svg" width="32" height="32" fill="none" viewBox="0 0 32 32">
    <path class="svg-colorized-el" fill="#fff" fill-rule="evenodd" d="M27.435 9.972c.178-.549 0-.947-.788-.947H24.03c-.66 0-.966.349-1.144.722 0 0-1.347 3.189-3.228 5.257-.61.597-.89.797-1.22.797-.178 0-.406-.2-.406-.748V9.947c0-.648-.204-.947-.763-.947H13.15c-.406 0-.66.299-.66.598 0 .623.94.772 1.042 2.516V15.9c0 .822-.153.972-.483.972-.89 0-3.05-3.214-4.347-6.876C8.448 9.274 8.194 9 7.533 9H4.89c-.763 0-.89.349-.89.722 0 .673.89 4.06 4.143 8.545 2.16 3.064 5.236 4.708 8.007 4.708 1.677 0 1.88-.374 1.88-.996v-2.317c0-.747.153-.872.687-.872.381 0 1.068.2 2.618 1.67 1.78 1.743 2.084 2.54 3.075 2.54h2.619c.762 0 1.118-.374.915-1.096-.23-.723-1.093-1.769-2.212-3.014-.61-.698-1.525-1.47-1.804-1.844-.382-.498-.28-.697 0-1.146-.026 0 3.177-4.434 3.507-5.928z" clip-rule="evenodd"/>
</svg>