<svg width="24" height="24" viewBox="0 0 24 24" fill="none" xmlns="http://www.w3.org/2000/svg">
    <path class="svg-colorized-el" d="M9.734 17l-.826-2.786h-3.43L4.652 17H3.434L6.43 7.228h1.554L10.98 17H9.734zM7.256 8.474H7.13l-1.372 4.718h2.87L7.256 8.474zM18.575 17c-.44 0-.752-.112-.938-.336a1.633 1.633 0 0 1-.35-.84h-.07c-.16.42-.416.751-.77.994-.346.233-.813.35-1.4.35-.757 0-1.359-.196-1.806-.588-.448-.392-.672-.929-.672-1.61 0-.672.242-1.19.727-1.554.495-.364 1.289-.546 2.38-.546h1.54v-.714c0-.532-.149-.929-.448-1.19-.298-.27-.723-.406-1.274-.406-.485 0-.881.098-1.19.294a2.1 2.1 0 0 0-.742.77l-.755-.56c.093-.187.219-.369.377-.546.16-.177.355-.331.589-.462.233-.14.499-.247.797-.322.3-.084.63-.126.995-.126.849 0 1.52.215 2.016.644.503.43.756 1.027.756 1.792v3.976h1.008V17h-.77zm-3.332-.77c.289 0 .55-.033.783-.098.243-.075.453-.168.63-.28a1.33 1.33 0 0 0 .407-.42c.102-.168.154-.345.154-.532v-1.19h-1.54c-.672 0-1.162.093-1.47.28a.895.895 0 0 0-.463.812v.294c0 .373.131.658.393.854.27.187.639.28 1.105.28z" fill="#43B6B8"/>
</svg>